<?xml version="1.0" encoding="UTF-8"?>
<svg version="1.1" xmlns="http://www.w3.org/2000/svg" width="805" height="160">
<path d="M0 0 C10.1273503 9.31877942 14.31542873 22.97340038 15 36.38671875 C15.38802206 53.38693527 10.70199498 67.40857681 -0.9296875 79.87109375 C-10.7369438 89.33245097 -23.02603975 91.36572415 -36.109375 91.1484375 C-45.5660021 90.79083395 -51.03870785 87.32836143 -59.125 81.9375 C-59.455 93.4875 -59.785 105.0375 -60.125 116.9375 C-69.035 116.9375 -77.945 116.9375 -87.125 116.9375 C-87.125 75.3575 -87.125 33.7775 -87.125 -9.0625 C-78.545 -9.0625 -69.965 -9.0625 -61.125 -9.0625 C-60.795 -5.7625 -60.465 -2.4625 -60.125 0.9375 C-59.1659375 -0.1453125 -59.1659375 -0.1453125 -58.1875 -1.25 C-42.20321611 -17.0546852 -16.26905682 -12.80954474 0 0 Z M-54.8125 21.6875 C-60.52114549 29.71046122 -61.08196011 37.27002794 -60.125 46.9375 C-58.49124095 54.10464536 -55.06610526 59.57260634 -49.125 63.9375 C-42.93429415 67.4750462 -36.44204146 67.99027545 -29.578125 66.31640625 C-23.1003999 64.10809088 -18.66985506 60.83574495 -15.125 54.9375 C-11.11223043 45.09188324 -10.99353136 35.75948206 -15.125 25.9375 C-18.48396819 19.84740814 -22.49706291 16.13010679 -29.125 13.9375 C-39.07989238 11.27629115 -47.72458275 14.43474746 -54.8125 21.6875 Z " fill="#FFFFFF" transform="translate(413.125,43.0625)"/>
<path d="M0 0 C8.91 0 17.82 0 27 0 C27 41.58 27 83.16 27 126 C18.42 126 9.84 126 1 126 C0.505 121.545 0.505 121.545 0 117 C-0.54527344 117.47050781 -1.09054688 117.94101563 -1.65234375 118.42578125 C-11.26595363 126.36317197 -21.60460667 128.92070322 -34 128 C-45.0550816 126.39938696 -54.59405872 122.64026482 -62 114 C-62.47953125 113.44957031 -62.9590625 112.89914063 -63.453125 112.33203125 C-74.55631801 98.73342365 -75.11863019 82.77350268 -74 66 C-73.3387533 61.40596816 -71.90221486 57.22853008 -70 53 C-69.63777344 52.18789063 -69.27554688 51.37578125 -68.90234375 50.5390625 C-63.55403987 39.91497411 -55.44834523 32.45792735 -44.48046875 27.96875 C-33.74624231 24.49259871 -20.37734833 24.28302349 -10 29 C-3.41970803 32.58029197 -3.41970803 32.58029197 -1 35 C-0.67 23.45 -0.34 11.9 0 0 Z M-42 58 C-47.79694022 66.24165622 -47.8717766 75.27307138 -47 85 C-45.40828523 92.27930705 -40.97361598 96.78813404 -35 101 C-28.87593875 104.47069622 -22.74868426 104.45280876 -16.09765625 102.71875 C-10.08235961 100.65764277 -5.44747672 96.2542868 -2 91 C-0.07664092 86.41403157 0.38671826 82.11209795 0.375 77.1875 C0.37338867 76.48262451 0.37177734 75.77774902 0.37011719 75.05151367 C0.18352378 67.10208553 -2.34136251 60.65863749 -8 55 C-19.28203364 47.20562079 -32.27891475 48.27891475 -42 58 Z " fill="#FFFFFF" transform="translate(77,6)"/>
<path d="M0 0 C8.91 0 17.82 0 27 0 C27 41.58 27 83.16 27 126 C18.42 126 9.84 126 1 126 C0.505 121.545 0.505 121.545 0 117 C-0.54527344 117.47050781 -1.09054687 117.94101563 -1.65234375 118.42578125 C-11.26595363 126.36317197 -21.60460667 128.92070322 -34 128 C-45.0550816 126.39938696 -54.59405872 122.64026482 -62 114 C-62.47953125 113.44957031 -62.9590625 112.89914063 -63.453125 112.33203125 C-74.55631801 98.73342365 -75.11863019 82.77350268 -74 66 C-73.3387533 61.40596816 -71.90221486 57.22853008 -70 53 C-69.63777344 52.18789063 -69.27554687 51.37578125 -68.90234375 50.5390625 C-63.55403987 39.91497411 -55.44834523 32.45792735 -44.48046875 27.96875 C-33.43115676 24.39056201 -20.71748119 24.59555567 -10 29 C-5.545 31.97 -5.545 31.97 -1 35 C-0.67 23.45 -0.34 11.9 0 0 Z M-42 58 C-47.79694022 66.24165622 -47.8717766 75.27307138 -47 85 C-45.40828523 92.27930705 -40.97361598 96.78813404 -35 101 C-28.87593875 104.47069622 -22.74868426 104.45280876 -16.09765625 102.71875 C-10.08235961 100.65764277 -5.44747672 96.2542868 -2 91 C-0.07664092 86.41403157 0.38671826 82.11209795 0.375 77.1875 C0.37338867 76.48262451 0.37177734 75.77774902 0.37011719 75.05151367 C0.18352378 67.10208553 -2.34136251 60.65863749 -8 55 C-19.28203364 47.20562079 -32.27891475 48.27891475 -42 58 Z " fill="#FFFFFF" transform="translate(511,6)"/>
<path d="M0 0 C9.05293046 8.12391795 12.97339699 20.17081189 13.68164062 32.03125 C13.71708984 32.75699219 13.75253906 33.48273438 13.7890625 34.23046875 C13.83611328 34.97167969 13.88316406 35.71289062 13.93164062 36.4765625 C14.131829 40.13246174 13.99859101 42.8923547 13.1015625 46.48046875 C-9.9984375 46.48046875 -33.0984375 46.48046875 -56.8984375 46.48046875 C-53.40661486 56.082981 -51.37046688 61.2114335 -42.6015625 65.640625 C-36.02882125 67.68273391 -26.75753792 67.76841544 -20.3359375 65.04296875 C-15.87880675 62.36088788 -13.39987733 57.91483936 -10.8984375 53.48046875 C-3.01426767 54.83305771 4.49509584 57.02446227 12.1015625 59.48046875 C11.03588177 68.6669064 5.37229744 76.2849856 -1.75 81.98828125 C-14.69648747 90.98020527 -29.47035879 93.14039491 -44.7734375 90.41796875 C-58.20882885 87.25410332 -68.89654771 80.04723123 -76.7109375 68.66796875 C-84.18312151 55.76617007 -86.01297212 39.58871881 -82.7109375 25.16796875 C-78.83377434 11.82123658 -71.22653916 1.6422524 -59.578125 -6.05078125 C-39.96595407 -16.80030934 -17.07948452 -13.67061621 0 0 Z M-49.8984375 15.48046875 C-50.41019531 15.9496875 -50.92195313 16.41890625 -51.44921875 16.90234375 C-55.20475249 20.83771995 -55.06592425 22.65287599 -55.8984375 28.48046875 C-41.7084375 28.48046875 -27.5184375 28.48046875 -12.8984375 28.48046875 C-14.42474547 21.24678799 -14.42474547 21.24678799 -18.2109375 16.10546875 C-19.07138672 15.13480469 -19.07138672 15.13480469 -19.94921875 14.14453125 C-25.25512531 9.61483947 -31.56160361 9.91096745 -38.22265625 10.1015625 C-43.25307635 10.6201074 -46.24726063 12.05467317 -49.8984375 15.48046875 Z " fill="#FFFFFF" transform="translate(302.8984375,43.51953125)"/>
<path d="M0 0 C12.8125046 14.03992101 14 28.41296132 14 47 C-9.43 47 -32.86 47 -57 47 C-53.01708935 58.02362527 -53.01708935 58.02362527 -45 65 C-37.96005664 67.83566949 -29.7970876 68.36113682 -22.453125 66.27734375 C-16.81575247 63.65999222 -13.51518047 59.65915606 -11 54 C-5.60607261 54.61665136 -0.71604717 55.87922796 4.4375 57.5625 C5.53481445 57.91344727 5.53481445 57.91344727 6.65429688 58.27148438 C8.43780179 58.84267222 10.21913583 59.42063123 12 60 C10.7353823 69.81854863 5.18327926 76.7261846 -2.2265625 83.0234375 C-12.44554093 90.30625874 -25.59327142 93.22977611 -38 92 C-51.34359535 89.72846032 -64.4508555 85.13279259 -73 74 C-79.39530277 64.57393788 -83.10014154 55.33821658 -84 44 C-84.05285156 43.33871094 -84.10570313 42.67742187 -84.16015625 41.99609375 C-84.75892065 27.86004716 -79.81991305 14.30338874 -70.6875 3.625 C-62.21488504 -5.18651956 -51.63840774 -10.94001803 -39.2421875 -11.96875 C-24.74093806 -12.17085801 -11.39691527 -9.45366243 0 0 Z M-51.875 17.9375 C-54.49471919 21.71297765 -56 24.38354105 -56 29 C-41.81 29 -27.62 29 -13 29 C-14.70937988 19.78649231 -14.70937988 19.78649231 -20.546875 13.8125 C-30.4093071 7.74331102 -44.17170281 9.34621466 -51.875 17.9375 Z " fill="#FFFFFF" transform="translate(197,43)"/>
<path d="M0 0 C10.81172003 11.1185635 14.91265667 24.53596568 14.828125 39.6953125 C14.45110386 54.07597598 8.96740456 66.10115298 -0.9453125 76.4921875 C-11.23940417 85.81573884 -25.7914908 90.72880258 -39.6953125 90.1015625 C-54.58200252 88.38467279 -68.09549782 83.66953604 -77.89453125 71.86328125 C-87.75591167 58.74802434 -90.83108569 44.35429033 -88.97265625 28.21875 C-86.65126277 15.59617298 -79.79763849 3.47187463 -69.47265625 -4.21875 C-47.43039222 -17.9405501 -19.84116284 -17.80376065 0 0 Z M-55.41015625 18.53125 C-61.73869682 26.68073857 -62.48373041 34.56710304 -61.47265625 44.78125 C-59.83675793 51.95778013 -56.40958229 57.40155046 -50.47265625 61.78125 C-44.6485945 65.23620189 -38.08940428 65.75538235 -31.47265625 64.78125 C-24.91715378 62.60229037 -20.27085167 59.53609154 -16.47265625 53.78125 C-12.0090427 44.69460813 -11.29971821 35.6669238 -14.375 25.921875 C-17.63254864 18.68287803 -22.30809988 14.73061681 -29.41015625 11.40625 C-39.19966397 9.40839128 -48.36458784 10.9962 -55.41015625 18.53125 Z " fill="#FFFFFF" transform="translate(636.47265625,45.21875)"/>
<path d="M0 0 C5.56431117 5.64008972 8.31232677 11.30099547 10 19 C7.74330185 21.25669815 6.80436406 21.44502156 3.75390625 22.0703125 C2.91666016 22.24433594 2.07941406 22.41835937 1.21679688 22.59765625 C0.34087891 22.77167969 -0.53503906 22.94570312 -1.4375 23.125 C-2.30955078 23.30675781 -3.18160156 23.48851562 -4.08007812 23.67578125 C-10.55680216 25 -10.55680216 25 -14 25 C-14.32871094 24.09507813 -14.32871094 24.09507813 -14.6640625 23.171875 C-16.80839297 17.76746486 -18.45249959 14.46555574 -24 12 C-30.48206606 10.46787529 -35.22298827 10.63007649 -41 14 C-43.29616964 16.87648225 -43.29616964 16.87648225 -43.125 20.4375 C-42.31676544 24.22323366 -42.31676544 24.22323366 -39 26.1875 C-33.99252261 28.31161045 -28.64589705 29.31776746 -23.35913086 30.51171875 C-12.51193037 32.9815794 -4.46866805 36.3319838 3 45 C7.07365812 51.5094537 8.04710246 58.4543854 7 66 C4.48629782 76.03993475 -1.79839804 83.33151457 -10.48828125 88.74609375 C-22.69741916 94.84116882 -36.31599915 94.18603502 -49 90 C-58.57735598 85.64665637 -64.16774271 79.6526864 -68.3359375 70.11328125 C-69 68 -69 68 -69 64 C-66.48025747 63.34964629 -63.95934065 62.70462507 -61.4375 62.0625 C-60.38079102 61.78889648 -60.38079102 61.78889648 -59.30273438 61.50976562 C-54.87862902 60.3884486 -50.52944562 59.56543671 -46 59 C-45.63648438 59.81404297 -45.63648438 59.81404297 -45.265625 60.64453125 C-42.70537714 66.2211528 -42.70537714 66.2211528 -38 70 C-32.53723127 71.82092291 -27.74072761 71.80819496 -22.5 69.375 C-19.83254242 67.16911115 -19.83254242 67.16911115 -18.8125 64.0625 C-19.01845082 60.69863662 -19.710792 59.47423423 -22.13842773 57.1887207 C-26.27489487 54.5473491 -31.37690451 53.99933149 -36.125 53.0625 C-47.58987179 50.79283938 -58.14556853 47.57992353 -65.62890625 38.05078125 C-70.44332969 30.84972055 -70.91386187 23.54306825 -70 15 C-67.75085672 5.85094258 -62.95525582 -0.3420999 -55.0625 -5.3125 C-38.03688321 -14.8671745 -14.91186536 -12.63288216 0 0 Z " fill="#FFFFFF" transform="translate(793,42)"/>
<path d="M0 0 C8.25 0 16.5 0 25 0 C25 9.24 25 18.48 25 28 C31.20792914 27.96041973 31.20792914 27.96041973 37.41577148 27.90991211 C38.18477783 27.90741455 38.95378418 27.90491699 39.74609375 27.90234375 C40.53685303 27.89710693 41.3276123 27.89187012 42.14233398 27.88647461 C44 28 44 28 45 29 C45.08713831 30.70772358 45.10700007 32.41898649 45.09765625 34.12890625 C45.09282227 35.68061523 45.09282227 35.68061523 45.08789062 37.26367188 C45.07532227 38.8965918 45.07532227 38.8965918 45.0625 40.5625 C45.05798828 41.65498047 45.05347656 42.74746094 45.04882812 43.87304688 C45.0369984 46.58205432 45.01906231 49.2910338 45 52 C38.4 52 31.8 52 25 52 C25.11987613 58.33558077 25.24251904 64.67098031 25.37231445 71.00634766 C25.41562691 73.16158865 25.45730463 75.31686314 25.49731445 77.47216797 C25.55510618 80.57008967 25.61877523 83.66784334 25.68359375 86.765625 C25.70030624 87.72929993 25.71701874 88.69297485 25.73423767 89.68585205 C25.7641555 91.03679962 25.7641555 91.03679962 25.79467773 92.41503906 C25.81799416 93.60084564 25.81799416 93.60084564 25.84178162 94.81060791 C25.99857453 96.98027459 26.40615681 98.91136533 27 101 C32.7308675 102.83792973 39.07690436 102.05484348 45 102 C45 109.59 45 117.18 45 125 C39.19759029 126.65783135 35.40043244 127.35730603 29.625 127.3125 C28.87621582 127.30758545 28.12743164 127.3026709 27.35595703 127.29760742 C21.80490524 127.17997483 16.98969412 126.5950629 12 124 C11.37996094 123.68289062 10.75992188 123.36578125 10.12109375 123.0390625 C4.42402245 119.56914002 0.4076015 113.52318851 -1.56565857 107.18231201 C-2.07295589 104.63343927 -2.11971502 102.28030799 -2.11352539 99.68066406 C-2.11344986 98.61986633 -2.11337433 97.5590686 -2.11329651 96.46612549 C-2.10813522 95.32746033 -2.10297394 94.18879517 -2.09765625 93.015625 C-2.0962413 91.84489441 -2.09482635 90.67416382 -2.09336853 89.46795654 C-2.0877709 85.72861171 -2.0752188 81.98932674 -2.0625 78.25 C-2.0574847 75.71484461 -2.05292184 73.17968829 -2.04882812 70.64453125 C-2.03780223 64.42966443 -2.02053919 58.21484237 -2 52 C-7.94 52 -13.88 52 -20 52 C-20 44.08 -20 36.16 -20 28 C-16.37 27.67 -12.74 27.34 -9 27 C-5.61278125 25.33610307 -3.68501232 24.26667191 -1.88671875 20.94140625 C-0.65831459 16.86656778 -0.53597869 12.92139224 -0.375 8.6875 C-0.25125 5.820625 -0.1275 2.95375 0 0 Z " fill="#FFFFFF" transform="translate(671,6)"/>
</svg>
